<?xml version="1.0" standalone="no"?>
<!DOCTYPE svg PUBLIC "-//W3C//DTD SVG 20010904//EN"
 "http://www.w3.org/TR/2001/REC-SVG-20010904/DTD/svg10.dtd">
<svg version="1.0" xmlns="http://www.w3.org/2000/svg"
 width="1200.000000pt" height="1200.000000pt" viewBox="0 0 1200.000000 1200.000000"
 preserveAspectRatio="xMidYMid meet">
<metadata>
Created by potrace 1.14, written by Peter Selinger 2001-2017
</metadata>
<g transform="translate(0.000000,1200.000000) scale(0.100000,-0.100000)"
fill="#000000" stroke="none">
<path d="M3120 11303 c-514 -49 -969 -224 -1379 -530 -151 -113 -401 -363
-514 -514 -222 -298 -367 -601 -457 -954 -82 -322 -75 -29 -75 -3305 0 -3276
-7 -2983 75 -3305 121 -478 346 -873 699 -1226 356 -355 761 -585 1241 -703
299 -73 223 -70 1543 -73 l1187 -4 -2 1533 -3 1532 -150 51 c-311 105 -529
226 -766 424 -942 786 -1102 2172 -365 3159 104 138 322 357 458 458 214 159
406 259 673 349 l150 51 3 1532 2 1532 -1142 -2 c-629 0 -1159 -3 -1178 -5z"/>
<path d="M6562 9778 l3 -1532 150 -51 c351 -118 618 -278 874 -521 955 -908
961 -2424 15 -3334 -265 -255 -526 -412 -889 -535 l-150 -51 -3 -1532 -2
-1533 1187 4 c1320 3 1244 0 1543 73 480 118 885 348 1240 703 354 355 579
749 700 1226 82 322 75 29 75 3305 0 3276 7 2983 -75 3305 -121 477 -347 873
-699 1226 -356 355 -761 585 -1241 703 -299 73 -223 70 -1543 73 l-1187 4 2
-1533z"/>
<path d="M5846 7330 c-579 -73 -1036 -493 -1158 -1063 -30 -145 -30 -389 0
-534 113 -529 516 -932 1045 -1045 145 -30 389 -30 534 0 529 113 932 516
1045 1045 30 145 30 389 0 534 -113 528 -522 937 -1043 1043 -114 24 -320 33
-423 20z"/>
</g>
</svg>
